<?xml version="1.0" standalone="no"?>
<!DOCTYPE svg PUBLIC "-//W3C//DTD SVG 20010904//EN"
 "http://www.w3.org/TR/2001/REC-SVG-20010904/DTD/svg10.dtd">
<svg version="1.0" xmlns="http://www.w3.org/2000/svg"
 width="500.000000pt" height="500.000000pt" viewBox="0 0 500.000000 500.000000"
 preserveAspectRatio="xMidYMid meet">

<g transform="translate(0.000000,500.000000) scale(0.100000,-0.100000)"
fill="#000000" stroke="none">
<path d="M880 3170 l0 -1730 395 0 395 0 0 -50 c0 -47 2 -50 25 -50 l25 0 0
-605 0 -605 835 0 835 0 0 605 0 605 30 0 c29 0 30 1 30 50 l0 50 115 0 115 0
0 210 0 210 270 0 270 0 0 1320 0 1320 -270 0 -270 0 0 200 0 200 -1400 0
-1400 0 0 -1730z m1965 1580 c330 -69 595 -216 822 -453 255 -267 403 -617
420 -992 6 -158 -4 -267 -43 -424 -58 -235 -162 -442 -308 -614 -42 -50 -191
-307 -587 -1015 -292 -521 -539 -958 -549 -972 -9 -14 -29 -26 -43 -28 -21 -3
-31 4 -50 35 -13 21 -257 454 -542 963 -395 704 -533 942 -577 995 -164 194
-272 412 -335 675 -36 155 -43 400 -15 565 105 611 534 1083 1129 1241 159 43
255 54 423 49 105 -3 187 -11 255 -25z"/>
<path d="M2395 4713 c-339 -44 -627 -179 -859 -403 -246 -237 -385 -502 -441
-838 -21 -128 -16 -404 10 -522 56 -254 173 -488 344 -689 26 -31 70 -96 97
-146 165 -299 938 -1672 947 -1680 7 -7 8 -7 5 0 -8 15 -351 630 -401 720
l-46 80 255 3 c141 1 367 1 504 0 l249 -3 -115 -205 c-146 -260 -209 -378
-197 -365 6 6 207 361 448 790 287 511 453 797 482 829 56 62 155 210 198 296
46 91 99 247 127 372 30 137 33 423 5 562 -128 632 -611 1096 -1242 1191 -90
13 -294 18 -370 8z m408 -248 c237 -49 458 -169 624 -337 172 -173 278 -358
332 -578 139 -568 -137 -1154 -664 -1410 -224 -109 -502 -148 -748 -105 -747
131 -1207 911 -955 1623 107 305 319 548 605 694 131 68 257 107 428 132 61 9
303 -3 378 -19z"/>
<path d="M2669 538 c-34 -62 -64 -116 -66 -120 -2 -5 -2 -8 1 -8 2 0 32 51 67
113 34 61 64 115 66 120 2 4 2 7 -1 7 -2 0 -32 -51 -67 -112z"/>
<path d="M2519 383 c37 -70 37 -70 60 -22 20 40 11 36 -15 -8 -10 -16 -13 -13
-33 25 -12 23 -24 42 -26 42 -3 0 4 -17 14 -37z"/>
</g>
</svg>
